# xmcd
#
# Track frame offsets: 
#        150
#        19055
#        41009
#        57661
#        78327
#        98890
#        118684
#        150647
#        168819
#        185609
#        212831
#        238802
#        258619
#
# Disc length: 3941 seconds
#
# Revision: 0
# Processed by: cddbd v1.5.2PL0 Copyright (c) Steve Scherf et al.
# Submitted via: ExactAudioCopy v0.99pb4
#
DISCID=b20f630d
DTITLE=Todd Wolfe Band  - Stripped Down At The Bang Palace
DYEAR=2009
DGENRE=Blues/Rock
TTITLE0=Wing of a Dove
TTITLE1=Stranger Blues
TTITLE2=She's Nineteen Years Old
TTITLE3=Bad Boy
TTITLE4=Black Night
TTITLE5=Roll Over
TTITLE6=Come In My Kitchen
TTITLE7=Evil
TTITLE8=Mississippi Queen
TTITLE9=Tree O'clock Blues
TTITLE10=It's All Over Now
TTITLE11=Light of Day
TTITLE12=Wreck My Life
EXTD=
EXTT0=
EXTT1=
EXTT2=
EXTT3=
EXTT4=
EXTT5=
EXTT6=
EXTT7=
EXTT8=
EXTT9=
EXTT10=
EXTT11=
EXTT12=
PLAYORDER=
